<svg width="168" height="60" viewBox="0 0 168 60" fill="none" xmlns="http://www.w3.org/2000/svg">
<path d="M54.1164 25.9961C54.5445 25.5148 54.8166 25.1603 55.3936 24.8516C56.0519 24.9457 56.1061 25.7835 56.3821 25.9256L56.9395 26.005C57.651 26.1178 57.7012 26.1023 58.1174 26.674C58.1425 26.7085 58.1673 26.7434 58.1921 26.7782C59.4425 26.8713 61.7004 29.4127 62.5683 30.3467C63.2494 31.0796 63.5315 31.6908 64.0405 32.5006C64.5222 33.0262 64.8227 33.3598 65.0925 34.0472L65.1427 34.2321C65.6886 34.9879 65.8379 35.1103 65.9614 36.0553L66.019 36.7288C66.7509 37.2867 66.9377 37.0458 66.9855 38.0412L67.1814 39.2683C67.5696 40.2003 67.886 40.8495 67.8752 41.8791C69.0418 42.0854 72.6594 41.9736 73.958 41.9665C74.4192 41.9846 74.9372 41.9861 75.4007 41.9758C78.9087 41.8973 82.5351 42.1142 86.0326 41.9364L86.5762 41.8875C86.8701 41.6628 86.805 41.6394 86.9166 41.2335C86.4798 40.9802 86.6424 41.0388 86.1267 41.053C86.0605 40.6999 85.9408 40.2526 85.856 39.8944C85.3066 39.0925 85.0394 38.8924 84.9686 37.9509L84.8164 37.006C84.4412 35.8587 83.9592 35.4204 82.8557 35.0064L82.8348 34.1995L82.7616 34.0787C82.3028 33.9728 79.6718 34.0068 79.0364 34.0063L78.9911 34.1027L78.9017 35.0553C78.6357 35.0423 78.2918 35.0997 78.0212 35.1348L77.6205 35.1898C77.0896 35.4278 76.8701 36.0074 76.2138 35.9482C75.9176 35.5796 76.0012 35.5684 75.928 35.0274C75.302 34.1367 75.0104 33.9784 74.9756 32.9572C74.9639 32.5714 74.9465 32.4417 74.864 32.0664C74.2426 31.8029 73.8233 31.031 73.8941 30.3803C74.217 29.8579 74.2983 30.2238 75.0545 29.829L75.0824 29.8144C75.5378 29.1239 76.1697 28.9574 76.9363 28.8958L77.2639 28.9051C78.178 28.8582 77.8249 28.1839 78.9551 28.0559L80.0725 28.0032C82.0019 27.9677 83.9325 27.9623 85.8618 27.987C86.7528 27.9803 87.308 28.2374 88.0235 28.7994C88.5927 29.0349 88.8308 29.3407 89.242 29.7842C89.4743 29.9286 89.9018 30.1554 90.0296 30.3718C90.5372 31.006 90.6998 31.2104 91.0529 31.9521C91.8219 32.8179 91.8602 32.8085 91.9543 33.9908C91.9741 34.2482 92.0252 34.7255 92.0042 34.9655L91.9926 37.0273C92.0008 37.4991 91.9206 37.6319 92.1518 37.9614C92.4817 38.0036 92.6826 38.0098 93.0102 38.0138L93.0508 38.8312C94.0312 40.0153 93.7559 40.8376 94.7967 41.7868C95.6284 42.1058 100.832 42.0387 101.897 41.9288C102.204 41.9222 102.379 41.8983 102.678 41.8522C102.943 41.5528 102.842 41.1689 102.92 40.6405C102.875 37.4454 102.817 32.3828 103.015 29.0827C103.019 29.0054 103.226 28.9369 103.328 28.8886L108.996 28.9078C109.384 28.9174 109.637 28.8516 109.905 29.0449C110.206 32.7611 109.853 37.95 110.014 41.9187C111.689 41.9922 113.244 41.9738 114.922 41.9523L115.86 41.9697C116.973 41.8187 119.331 42.0743 120.847 41.8949C120.954 37.6556 120.884 33.1867 120.887 28.9295C123.125 28.8387 125.796 28.8786 128.033 28.9001C127.864 30.551 127.947 33.7759 127.948 35.5457L127.949 47.9491L125.75 47.9644C123.14 47.7914 118.055 47.9412 115.288 47.9411L94.1404 47.9422L64.0425 47.944C58.9838 47.9443 53.3043 47.8108 48.3112 47.9697L47.9269 47.8978L47.9781 47.5942C47.8254 46.8398 47.9337 43.0769 47.9118 42.0067C50.5863 41.8791 53.4573 42.0208 56.1487 41.9759C57.4408 41.9543 58.7065 42.0359 60.0016 41.9032L59.9488 40.9182C59.8445 39.9879 59.103 39.5222 58.9068 38.1631C58.524 37.8233 58.1549 37.5351 57.9115 37.0812C57.3608 35.4589 54.9362 34.2149 54.3662 33.3205C53.9651 32.998 52.8264 32.4388 52.3148 32.1727C52.1412 32.044 51.2589 31.6526 51.0118 31.5378C52.0308 30.2779 52.7485 28.2603 53.7695 27.0796C54.0091 26.7301 54.0394 26.4104 54.1164 25.9961Z" fill="#F13429"/>
<path d="M86.9165 41.2334C86.9026 41.8129 86.8793 42.3778 86.92 42.957C82.9648 42.9777 77.8063 43.1474 73.9487 42.9582C72.2656 42.8445 69.7215 43.1645 68.1466 42.9568C67.8879 42.6642 67.9112 42.4151 67.8206 41.9828L67.8751 41.879C69.0417 42.0852 72.6593 41.9735 73.958 41.9664C74.4191 41.9845 74.9372 41.986 75.4007 41.9757C78.9086 41.8971 82.535 42.114 86.0325 41.9362L86.5762 41.8874C86.87 41.6627 86.805 41.6392 86.9165 41.2334Z" fill="#CE2C37"/>
<path d="M108.996 28.9076C109.384 28.9173 109.637 28.8515 109.905 29.0448C110.206 32.761 109.853 37.9499 110.014 41.9186L109.975 42.1088C109.554 41.7423 109.387 42.0964 109.018 41.7536C108.89 40.43 108.957 38.1512 108.959 36.7633C108.95 34.1447 108.962 31.5261 108.996 28.9076Z" fill="#DB2649"/>
<path d="M47.9118 42.0066C50.5863 41.8791 53.4573 42.0208 56.1487 41.9758C57.4408 41.9543 58.7065 42.0358 60.0016 41.9031L59.96 42.9246C56.1131 43.08 51.882 42.9968 48.0103 42.9751C48.0169 44.4133 48.0637 46.1864 47.9781 47.5941C47.8254 46.8397 47.9337 43.0768 47.9118 42.0066Z" fill="#CE2C37"/>
<path d="M101.897 41.9287C102.204 41.9221 102.379 41.8982 102.678 41.8521C102.943 41.5527 102.842 41.1688 102.92 40.6404C103.057 41.4796 102.895 42.0862 102.887 42.9087C100.212 43.0197 97.6239 42.8625 95.0917 42.9651L94.7966 41.7866C95.6283 42.1057 100.832 42.0386 101.897 41.9287Z" fill="#CE2C37"/>
<path d="M120.847 41.8948C120.861 42.2194 120.929 42.653 120.749 42.8989C120.663 42.9152 120.47 42.9585 120.393 42.959C119.609 42.8913 116.419 43.0441 116.016 42.8291C115.971 42.516 115.93 42.2811 115.859 41.9695C116.973 41.8185 119.331 42.0742 120.847 41.8948Z" fill="#CE2C37"/>
<path d="M110.014 41.9187C111.689 41.9922 113.244 41.9738 114.922 41.9522C114.802 42.3102 114.775 42.6555 114.441 42.7762C113.177 43.2345 111.306 42.7529 110.013 42.9923L109.975 42.1089L110.014 41.9187Z" fill="#CE2C37"/>
<path d="M82.8347 34.1995C83.0322 34.6101 83.0856 34.7828 83.4875 34.9986C84.059 35.0727 84.2727 34.9797 84.67 35.2849C84.9592 35.7701 84.8791 36.385 85.0196 36.9865C85.5226 37.1239 85.6608 37.0582 85.878 37.405L85.8769 37.9522C85.4889 38.0395 85.353 38.0078 84.9685 37.9509L84.8164 37.006C84.4412 35.8587 83.9591 35.4204 82.8556 35.0064L82.8347 34.1995Z" fill="#DE3031"/>
<path d="M114.922 41.9521L115.86 41.9696C115.93 42.2812 115.971 42.5161 116.016 42.8292C116.419 43.0441 119.609 42.8914 120.393 42.959C119.5 43.1215 116.452 43.0309 115.415 43.0117C113.927 42.9843 111.411 43.1447 110.013 42.9922C111.306 42.7528 113.177 43.2344 114.441 42.7761C114.775 42.6554 114.802 42.3101 114.922 41.9521Z" fill="#DE3031"/>
<path d="M89.2419 29.7842C89.4742 29.9286 89.9017 30.1553 90.0295 30.3718C90.5371 31.006 90.6997 31.2104 91.0528 31.9521L90.9738 32.5116L90.8542 32.1437C90.5127 31.8881 90.4813 31.9668 89.9865 31.942C89.8366 30.2571 89.1211 31.6484 88.8191 29.952L89.2419 29.7842Z" fill="#DE3031"/>
<path d="M90.0295 30.3716C90.5372 31.0058 90.6998 31.2102 91.0529 31.9519L90.9739 32.5114L90.8543 32.1435C90.5128 31.8879 90.4814 31.9666 89.9866 31.9418C90.0574 31.5134 90.0319 30.8256 90.0295 30.3716Z" fill="#CE2C37"/>
<path d="M93.0508 38.8311C94.0311 40.0152 93.7558 40.8374 94.7966 41.7866C93.5317 42.0455 94.6723 41.1917 93.1228 40.9116C92.966 40.543 93.0403 39.3063 93.0508 38.8311Z" fill="#DB2649"/>
<path d="M59.9489 40.9182C60.5256 41.0288 61.1719 41.085 61.0435 42.0509C60.9612 42.6711 60.5727 42.9046 59.96 42.9247L60.0016 41.9032L59.9489 40.9182Z" fill="#DE3031"/>
<path d="M54.1165 25.9961C54.5445 25.5148 54.8167 25.1603 55.3936 24.8516C56.0519 24.9457 56.1061 25.7835 56.3821 25.9256C56.1634 25.9854 55.1691 26.0058 54.884 26.0169L54.1165 25.9961Z" fill="#AD204A"/>
<path d="M67.1814 39.2681C67.5696 40.2001 67.886 40.8493 67.8752 41.8789L67.8206 41.9827C67.372 41.9256 67.4196 41.9988 67.116 41.737C66.9028 41.2365 67.0124 40.564 67.0566 40.0091L67.1814 39.2681Z" fill="#DB2649"/>
<path d="M74.8641 32.0662C74.2426 31.8027 73.8233 31.0308 73.8941 30.3801C74.2171 29.8577 74.2984 30.2236 75.0546 29.8288L75.0824 29.8142V29.97C74.7421 30.4525 74.8466 31.4541 74.8641 32.0662Z" fill="#B42926"/>
<path d="M91.0529 31.9521C91.8218 32.8179 91.8602 32.8085 91.9543 33.9909C91.6058 34.0216 91.2898 34.0951 91.0145 33.8844C90.8078 33.5562 90.9332 32.9269 90.9739 32.5116L91.0529 31.9521Z" fill="#DB2649"/>
<path d="M75.0824 29.8143C75.5377 29.1238 76.1696 28.9574 76.9363 28.8958C76.9061 29.4795 77.0013 29.4805 76.704 29.8687C76.3137 30.0778 75.554 29.9883 75.0824 29.9701V29.8143Z" fill="#DE3031"/>
<path d="M65.9841 37.9294C66.2809 37.9492 66.7107 37.9604 66.9855 38.0412L67.1814 39.2682L67.0566 40.0092C66.6948 38.4027 66.0056 39.9528 65.9841 37.9294Z" fill="#DB2649"/>
<path d="M74.9756 32.9572C75.4832 32.9575 75.5459 32.8676 75.8758 33.1269C76.0977 33.5763 75.9769 34.4537 75.9769 35.011L75.9281 35.0274C75.302 34.1367 75.0104 33.9784 74.9756 32.9572Z" fill="#B42926"/>
<path d="M85.8618 27.9869C86.7527 27.9802 87.308 28.2374 88.0235 28.7993L87.919 28.8775C87.4555 28.8823 86.5785 29.0217 86.2707 28.9061C85.8641 28.4694 86.0744 28.6236 85.8618 27.9869Z" fill="#AD204A"/>
<path d="M84.9685 37.9509C85.353 38.0078 85.4889 38.0395 85.8769 37.9522L85.856 39.8944C85.3065 39.0924 85.0394 38.8924 84.9685 37.9509Z" fill="#B42926"/>
<path d="M65.1427 34.2319C65.6886 34.9877 65.8379 35.1101 65.9614 36.0551C65.6613 36.0182 65.5195 36.0044 65.2274 35.9069C64.8528 35.3311 65.0257 34.9457 65.1427 34.2319Z" fill="#DE3031"/>
<path d="M75.928 35.0273L75.9768 35.011C76.5181 35.0691 77.0838 35.1208 77.6204 35.1897C77.0896 35.4277 76.87 36.0073 76.2137 35.9481C75.9175 35.5795 76.0012 35.5683 75.928 35.0273Z" fill="#AD204A"/>
<path d="M78.0211 35.1347C77.9886 34.7733 77.941 34.5159 78.0502 34.1674C78.4231 33.9384 78.5299 34.0179 79.0364 34.0062L78.9911 34.1026L78.9016 35.0552C78.6356 35.0422 78.2918 35.0996 78.0211 35.1347Z" fill="#CE2C37"/>
<path d="M78.9551 28.0559L80.0725 28.0032C79.9866 28.4653 80.0482 28.5691 79.7682 28.865C79.4012 28.9129 79.2269 28.9098 78.8645 28.8997L78.9551 28.0559Z" fill="#CE2C37"/>
<path d="M87.9189 28.8775L88.0235 28.7993C88.5927 29.0348 88.8308 29.3406 89.242 29.7842L88.8192 29.952C88.5264 29.9643 88.4149 29.9552 88.1245 29.9154C87.8841 29.6236 87.9457 29.3183 87.9189 28.8775Z" fill="#DB2649"/>
<path d="M64.0405 32.5005C64.5222 33.0261 64.8227 33.3598 65.0925 34.0471C64.7105 33.9157 64.5724 34.0637 64.0976 33.8118C63.8875 33.5246 64.007 32.8882 64.0405 32.5005Z" fill="#DE3031"/>
<path d="M52.3148 32.1728C52.747 32.1078 53.2991 31.9675 53.6742 32.154C54.0394 32.4782 54.1258 32.8948 54.3662 33.3205C53.9651 32.998 52.8264 32.4389 52.3148 32.1728Z" fill="#DE3031"/>
<path d="M66.019 36.7288C66.7509 37.2866 66.9377 37.0458 66.9855 38.0412C66.7107 37.9604 66.2809 37.9492 65.9841 37.9295L66.019 36.7288Z" fill="#CE2C37"/>
<path d="M56.9395 26.0049C57.651 26.1177 57.7011 26.1021 58.1173 26.6738C58.1424 26.7084 58.1673 26.7432 58.192 26.778C57.8377 26.8544 57.4624 26.9751 57.1219 26.8784C56.8592 26.5397 56.9454 26.5176 56.9395 26.0049Z" fill="#AD204A"/>
<path d="M54.1164 25.9961L54.8839 26.0169C54.8304 26.521 54.9095 26.5362 54.6287 26.8747L53.7694 27.0796C54.009 26.7301 54.0394 26.4104 54.1164 25.9961Z" fill="#DE3031"/>
<path d="M77.2638 28.9051C78.178 28.8582 77.8248 28.1839 78.9551 28.0559L78.8644 28.8997L77.2638 28.9051Z" fill="#A23740"/>
<path d="M57.9115 37.0811C58.2377 37.0912 58.645 37.0516 58.8662 37.2647C58.9804 37.5896 58.9362 37.8245 58.9067 38.1629C58.524 37.8231 58.1548 37.5349 57.9115 37.0811Z" fill="#DE3031"/>
<path d="M155.909 18.9836C156.652 18.8937 162.403 18.8547 162.847 19.0377C162.957 19.3263 162.933 19.4067 162.888 19.7166C163.01 20.7048 162.964 22.3646 162.966 23.4357L162.972 29.9736L162.975 37.7098C162.974 39.2453 163.037 41.3911 162.808 42.8477C162.201 43.1746 162.152 42.8808 161.965 43.5177C161.951 43.5648 161.937 43.6123 161.925 43.6597L161.932 43.9284C161.925 44.1062 161.917 44.319 161.908 44.5667C161.587 44.9186 161.025 45.615 160.726 45.9236L160.145 45.9924C159.987 46.5296 160.043 46.6441 159.694 46.9908L158.993 47.1632C158.099 47.4242 158.015 47.923 157.661 47.9388L156.86 47.9312L145.75 48.0122C144.56 48.0236 141.955 47.9658 140.919 48.0711L139.767 48.0185L139.762 47.6516C139.676 46.2237 139.728 44.4416 139.75 42.9972L139.71 42.88L139.78 41.957C141.387 41.8666 143.361 41.9099 144.996 41.9058L145.908 41.8739L145.934 41.0576L144.958 41.0542C144.884 40.6318 144.786 40.199 144.698 39.7781C144.251 38.6064 144.082 38.3783 143.995 37.1446L143.934 36.3228L143.845 35.879C143.917 33.061 143.608 34.7519 142.897 33.7558L142.843 32.9404L142.763 32.0386L142.828 31.8492C142.746 31.2369 142.925 30.7945 142.752 30.254C142.455 29.9323 142.435 30.0166 141.921 29.9236C141.878 29.4285 141.76 28.9549 141.652 28.4706C141.557 27.7192 140.985 27.536 140.981 26.021L140.814 24.3489L140.898 24.0082L141.951 23.9803L147.997 24.006L148.01 24.7487L148.037 24.7471C148.352 24.7248 148.406 24.6918 148.638 24.4767L148.835 25.021L148.904 26.1136L148.962 27.8324C148.909 28.5967 148.966 29.3397 149.007 30.104C149.353 30.028 149.629 29.9273 149.952 30.0704L149.985 31.4418C149.991 32.1169 149.925 33.1927 150.108 33.7817C150.659 34.2997 150.593 33.7568 150.906 34.5632L150.936 35.9552L150.934 37.0377C151.227 36.9743 151.583 36.91 151.857 36.8019C151.89 37.1572 151.945 37.5893 151.939 37.939L151.975 39.2214L151.967 39.6217C152.221 40.9442 152.856 40.312 152.931 41.8713C153.819 41.9302 153.973 41.7496 154.757 41.2798L154.77 41.1024L155.926 40.9491C155.85 39.8534 155.956 38.443 155.886 37.213L155.862 25.7395C155.859 23.6302 155.783 21.0252 155.909 18.9836Z" fill="#2266F6"/>
<path d="M145.908 41.874C145.914 42.1809 145.969 42.643 145.813 42.8822C145.052 43.035 141.914 42.9738 140.961 42.9707L139.75 42.9973L139.71 42.8801L139.78 41.9571C141.387 41.8667 143.361 41.91 144.996 41.9059L145.908 41.874Z" fill="#214FD8"/>
<path d="M139.75 42.9973L140.961 42.9707C140.86 44.4489 140.909 46.5485 140.919 48.0712L139.767 48.0186L139.762 47.6517C139.676 46.2238 139.728 44.4417 139.75 42.9973Z" fill="#1E5AE0"/>
<path d="M162.888 19.7168C163.01 20.705 162.964 22.3648 162.966 23.4359L162.972 29.9738L162.975 37.71C162.974 39.2455 163.037 41.3913 162.808 42.8479C162.201 43.1748 162.152 42.881 161.965 43.5179C161.951 43.565 161.937 43.6125 161.925 43.6599C161.924 42.9388 161.9 41.9603 161.979 41.2324C162.007 40.9717 162.421 40.9812 162.793 40.7734C163.051 35.9232 162.68 30.3252 162.828 25.4156C162.88 23.6442 162.728 21.4457 162.888 19.7168Z" fill="#1E5AE0"/>
<path d="M141.828 27.948C142.127 27.9882 142.498 27.9735 142.644 28.2125C143.152 29.0419 142.89 30.8124 142.899 31.783C143.332 31.8929 143.729 31.9051 143.943 32.2165C143.945 32.4689 143.956 32.7627 143.947 33.0109C143.748 32.9705 143.08 32.952 142.843 32.9405L142.763 32.0388L142.828 31.8494C142.746 31.2371 142.925 30.7947 142.752 30.2541C142.455 29.9324 142.435 30.0168 141.921 29.9237C141.878 29.4286 141.76 28.955 141.652 28.4707C141.672 28.2945 141.759 28.1153 141.828 27.948Z" fill="#214FD8"/>
<path d="M140.898 24.0083L141.951 23.9805C141.788 24.9929 141.867 26.4412 141.846 27.5279L141.828 27.948C141.759 28.1154 141.672 28.2946 141.652 28.4707C141.557 27.7194 140.986 27.5361 140.981 26.0212L140.814 24.3491L140.898 24.0083Z" fill="#214FD8"/>
<path d="M140.981 26.021C141.435 26.0412 141.433 25.963 141.704 26.2323C141.778 26.6771 141.746 27.1829 141.846 27.5277L141.828 27.9478C141.759 28.1152 141.672 28.2944 141.652 28.4706C141.557 27.7192 140.985 27.536 140.981 26.021Z" fill="#2742BC"/>
<path d="M150.934 37.0378C151.227 36.9745 151.583 36.9102 151.857 36.802C151.89 37.1574 151.945 37.5894 151.939 37.9391L151.975 39.2215C151.933 39.1891 151.231 38.9907 151.082 38.9362C150.865 38.6948 150.919 38.2953 150.921 37.9536L150.934 37.0378Z" fill="#1E5AE0"/>
<path d="M150.934 37.0378C151.227 36.9745 151.583 36.9102 151.857 36.802C151.89 37.1574 151.945 37.5894 151.939 37.9391L150.92 37.9536L150.934 37.0378Z" fill="#214FD8"/>
<path d="M159.982 45.8753L159.966 45.2807C160.287 44.8549 160.191 45.2428 160.862 44.9656C161.146 44.5195 161.074 44.6691 161.111 44.1367C161.427 43.9122 161.51 43.9689 161.932 43.9285C161.925 44.1063 161.917 44.3191 161.908 44.5668C161.587 44.9186 161.025 45.6151 160.726 45.9237L160.144 45.9925L159.982 45.8753Z" fill="#1E5AE0"/>
<path d="M143.995 37.1447C144.345 37.0923 144.686 36.958 144.874 37.3765C144.876 37.8173 144.854 38.6612 144.914 39.0666L144.698 39.7782C144.251 38.6065 144.082 38.3784 143.995 37.1447Z" fill="#2742BC"/>
<path d="M144.914 39.0667C144.993 39.2997 145.05 39.493 145.173 39.7092C146.053 40.1391 145.947 40.0215 145.934 41.0577L144.958 41.0543C144.884 40.6319 144.786 40.1991 144.698 39.7782L144.914 39.0667Z" fill="#214FD8"/>
<path d="M152.931 41.8713C153.819 41.9302 153.973 41.7496 154.757 41.2798L154.816 41.8826C154.583 41.8917 154.365 41.8809 154.16 41.9931C154.006 42.3265 153.633 42.9163 153.294 43.0677L153.131 42.9876C152.855 42.6751 152.87 42.3412 152.836 41.9247L152.931 41.8713Z" fill="#214FD8"/>
<path d="M156.86 47.9314C156.862 47.4032 156.778 47.4432 157.049 47.0822C157.455 46.8747 158.284 47.0077 158.773 47.0471L158.993 47.1633C158.099 47.4243 158.015 47.9231 157.661 47.9389L156.86 47.9314Z" fill="#2742BC"/>
<path d="M151.967 39.6218C152.221 40.9443 152.856 40.3121 152.931 41.8714L152.836 41.9248C152.426 41.9213 152.382 41.9882 152.084 41.7783C151.857 41.2118 151.968 40.3105 151.967 39.6218Z" fill="#2742BC"/>
<path d="M159.982 45.8752L160.145 45.9925C159.987 46.5297 160.043 46.6441 159.694 46.9909L158.993 47.1632L158.773 47.047C158.892 46.8697 158.949 46.3368 158.978 46.1062C159.271 45.8904 159.574 45.9229 159.982 45.8752Z" fill="#214FD8"/>
<path d="M142.843 32.9404C143.08 32.9519 143.748 32.9704 143.948 33.0108C143.95 33.6478 143.988 34.8676 143.93 35.4574L143.934 36.3228L143.845 35.879C143.917 33.061 143.608 34.7519 142.897 33.7558L142.843 32.9404Z" fill="#2742BC"/>
<path d="M143.93 35.4575C145.007 36.2333 144.926 36.0608 144.875 37.3766C144.686 36.9581 144.345 37.0924 143.995 37.1447L143.934 36.3229L143.93 35.4575Z" fill="#214FD8"/>
<path d="M148.01 24.7488L148.037 24.7472C148.352 24.7249 148.406 24.692 148.638 24.4768L148.835 25.0211L148.904 26.1138C148.58 26.0823 148.471 26.0793 148.166 25.9517C147.931 25.5637 148.013 25.2523 148.01 24.7488Z" fill="#1E5AE0"/>
<path d="M154.77 41.1025L155.926 40.9492C155.883 41.5138 155.973 41.4884 155.677 41.8694C155.326 41.9633 155.168 41.927 154.816 41.8828L154.757 41.28L154.77 41.1025Z" fill="#1E5AE0"/>
<path d="M5.00786 19.021C6.13877 18.9585 10.9727 18.8508 11.9708 19.004L12.0965 19.0017C12.0866 21.199 11.9687 41.5011 12.2175 41.8448L12.913 41.946C14.0007 41.9778 15.0891 41.9753 16.1765 41.9385L16.8508 41.9302C18.069 42.0022 19.618 41.9903 20.8228 41.8788C20.8692 41.0697 20.8564 40.078 20.8675 39.2545C20.8004 37.649 20.8609 35.7012 20.8463 34.0699C20.8325 32.5287 20.7866 30.3856 20.9046 28.8978L27.0602 28.8831L27.9803 28.9009L28.031 30.7174C28.0055 34.611 28.0008 38.5048 28.0169 42.3985C28.0184 44.0524 28.092 46.3378 28.0061 47.9512L27.9426 47.9732L27.0934 47.939L4.97289 47.948L4.96802 34.3349C4.96627 31.9872 4.84047 28.5335 5.00344 26.2812C4.89623 24.1257 4.99682 21.2307 5.00786 19.021Z" fill="#FD8219"/>
<path d="M27.0603 28.8831L27.9804 28.9009L28.031 30.7174C28.0056 34.611 28.0008 38.5048 28.0169 42.3985C28.0185 44.0524 28.092 46.3378 28.0061 47.9512L27.9426 47.9732L27.0934 47.939C26.9491 46.4959 27.0408 43.0746 27.0425 41.4879L27.0603 28.8831Z" fill="#F7792D"/>
<path d="M11.9708 19.0039L12.0965 19.0017C12.0866 21.199 11.9687 41.501 12.2175 41.8448L12.913 41.946C14.0007 41.9778 15.0891 41.9752 16.1765 41.9384C15.9497 42.3754 16.1315 42.6515 15.8239 42.9025C14.633 43.0494 12.9924 42.8193 12.0154 42.9957C11.8442 35.3785 11.8458 26.6381 11.9708 19.0039Z" fill="#D06926"/>
<path d="M20.8676 39.2544C21.1562 39.732 20.8362 42.2115 20.9146 42.98C20.1303 42.8705 18.1244 42.975 17.0948 42.9086C16.8667 42.6794 17.0008 42.3257 16.8508 41.9301C18.069 42.0021 19.6181 41.9903 20.8228 41.8787C20.8692 41.0696 20.8564 40.0779 20.8676 39.2544Z" fill="#D06926"/>
<path d="M5.00786 19.021C6.13877 18.9585 10.9727 18.8508 11.9708 19.004C10.674 19.2538 6.37655 18.9576 6.02354 19.2825C5.79413 20.7501 5.29744 19.7305 5.16781 20.6573C4.92829 22.3709 5.3856 24.6066 5.00345 26.2812C4.89623 24.1257 4.99683 21.2307 5.00786 19.021Z" fill="#F7792D"/>
<path d="M16.1766 41.9384L16.8509 41.9302C17.0009 42.3257 16.8668 42.6794 17.0948 42.9086C18.1245 42.975 20.1304 42.8706 20.9147 42.98C20.1538 43.0961 12.8143 43.0904 12.0155 42.9957C12.9925 42.8193 14.6331 43.0494 15.824 42.9025C16.1315 42.6515 15.9498 42.3754 16.1766 41.9384Z" fill="#F7792D"/>
<path d="M35.0041 19.0257C37.3627 18.9844 39.7216 18.966 42.0806 18.971C42.1066 21.9945 42.0229 25.1243 42.0908 28.1224C41.9904 30.3411 42.0583 33.0247 42.0593 35.2722L42.0558 47.9593C40.6207 47.8471 36.8051 47.9184 35.2865 47.9635L35.0461 47.9646C34.9286 47.394 34.9958 40.7915 34.9973 39.8255L35.0041 19.0257Z" fill="#F13429"/>
<path d="M48.3112 47.9695C53.3042 47.8106 58.9838 47.9441 64.0424 47.9439L94.1404 47.942L115.288 47.941C118.055 47.9411 123.14 47.7912 125.75 47.9643C126.583 48.2314 127.705 48.0777 128.689 48.283C128.739 48.5449 128.753 48.4492 128.664 48.6994C123.673 49.0431 118.597 48.9022 113.597 48.8697L97.8876 48.8905L66.1566 48.8442C63.6978 48.8439 48.6924 49.2145 47.2017 48.5965L47.142 48.421C47.3692 48.1205 47.9207 48.0574 48.3112 47.9695Z" fill="#C92F30" fill-opacity="0.0156863"/>
<path d="M21.9707 17.3607L21.994 17.184C22.3037 16.9371 22.4094 16.9935 22.843 16.9378C23.4369 16.9524 24.9417 17.012 25.4924 16.9028L25.9879 16.987C26.9094 17.0821 27.0148 17.0712 27.0684 18.1271C27.0776 18.3092 27.0968 18.4978 27.0824 18.6822C27.3407 19.0108 27.507 19.0233 27.9068 19.1139C27.8998 19.2508 27.8586 20.16 27.8249 20.2215C27.3112 21.1603 27.0095 22.451 25.976 22.9143C24.6714 23.1529 24.2631 23.1445 22.9345 22.9678L22.1945 22.8729C21.8909 22.6263 21.9621 22.6136 21.8562 22.1831L21.9664 22.015L21.9705 21.6359L21.8528 21.027L20.9918 20.9723C20.9457 20.4028 20.891 19.5578 21.0349 19.0178L21.0309 18.9519L21.0371 18.3752C21.2614 18.015 21.4332 18.0161 21.8619 17.7953L21.9707 17.3607Z" fill="#FD8219"/>
<path d="M25.9878 16.9871C26.9094 17.0822 27.0148 17.0713 27.0683 18.1272C27.0776 18.3093 27.0968 18.4979 27.0824 18.6823C27.3407 19.0109 27.5069 19.0233 27.9067 19.114C27.8998 19.2509 27.8585 20.1601 27.8249 20.2216C27.3112 21.1604 27.0094 22.4511 25.976 22.9144C25.9771 21.8619 25.8793 21.5192 26.5481 20.6661C26.807 20.3358 26.8213 19.5212 26.8275 19.1003C26.4707 19.0658 26.3919 19.054 26.0665 18.9059C25.9177 18.5425 25.9819 17.438 25.9878 16.9871Z" fill="#F7792D"/>
<path d="M21.8619 17.7952L21.9707 17.3606C22.0263 18.7668 21.9626 20.2202 21.9705 21.6358L21.8528 21.027L20.9918 20.9722C20.9457 20.4027 20.891 19.5577 21.0349 19.0177L21.0309 18.9518L21.0371 18.3751C21.2614 18.0149 21.4332 18.0161 21.8619 17.7952Z" fill="#F7792D"/>
<path d="M21.0349 19.0178C21.1994 20.8711 21.91 19.2972 21.8528 21.0271L20.9918 20.9723C20.9457 20.4028 20.891 19.5578 21.0349 19.0178Z" fill="#FD8219"/>
<path d="M21.0309 18.952L21.037 18.3753C21.2613 18.0151 21.4331 18.0163 21.8619 17.7954C21.8894 18.1675 21.9772 18.5794 21.7676 18.8643C21.4667 19.0038 21.3601 18.9809 21.0309 18.952Z" fill="#D06926"/>
<path d="M21.9663 22.0151C22.4903 22.0704 22.5197 21.9858 22.8529 22.2713C22.8807 22.4995 22.9144 22.74 22.9345 22.9679L22.1945 22.873C21.8908 22.6264 21.962 22.6137 21.8562 22.1832L21.9663 22.0151Z" fill="#D06926"/>
<path d="M100.947 15.9618C101.632 15.6909 101.932 15.4616 102.635 15.4983C103.048 15.7538 103.31 15.9297 103.81 15.8829C105.351 16.6958 105.258 18.515 105.049 20.0169C104.998 20.4931 105.065 20.6061 104.807 20.9382C104.482 21.2755 104.11 21.6395 103.841 22.0175C103.255 22.0412 101.435 22.1585 101.001 21.961L100.24 21.921C99.9587 21.6748 100.019 21.4721 99.9471 21.0129L99.8053 20.7765C99.5637 20.3664 99.4104 20.2257 99.0735 19.8858C99.0782 18.9286 98.8831 17.2755 99.8936 16.9056L100.002 16.1948C100.293 15.9186 100.453 15.9997 100.947 15.9618Z" fill="#F13429"/>
<path d="M103.81 15.8828C105.351 16.6958 105.258 18.5149 105.049 20.0169C104.998 20.4931 105.065 20.6061 104.807 20.9381L103.882 20.9314L104.001 20.0966C103.981 18.6071 103.862 17.3388 103.81 15.8828Z" fill="#DE3031"/>
<path d="M104.001 20.0966L105.049 20.0168C104.998 20.493 105.065 20.6061 104.807 20.9381L103.882 20.9314L104.001 20.0966Z" fill="#DB2649"/>
<path d="M99.0735 19.8857C99.0782 18.9285 98.8831 17.2754 99.8936 16.9055L99.8053 20.7764C99.5637 20.3663 99.4104 20.2256 99.0735 19.8857Z" fill="#B42926"/>
<path d="M103.882 20.9314L104.807 20.9381C104.482 21.2755 104.11 21.6394 103.841 22.0174C103.255 22.0411 101.435 22.1584 101.001 21.9609C101.591 21.8789 102.25 22.1104 102.889 21.855C102.99 21.6193 103 21.4489 103.033 21.1948C103.355 20.9008 103.368 20.985 103.882 20.9314Z" fill="#CE2C37"/>
<path d="M99.8937 16.9055L100.002 16.1947C100.293 15.9185 100.454 15.9996 100.947 15.9617C100.926 16.5112 101.017 16.5416 100.743 16.9073C100.39 16.9812 100.241 16.9506 99.8937 16.9055Z" fill="#B42926"/>
<path d="M99.947 21.0129C100.441 21.0219 100.517 20.9384 100.855 21.1866C100.909 21.4431 100.968 21.7013 101.001 21.9609L100.24 21.921C99.9586 21.6747 100.019 21.4721 99.947 21.0129Z" fill="#B42926"/>
<path d="M108.674 15.8987C109.428 15.3131 110.061 15.3285 110.946 15.8025C111.319 15.9111 111.566 15.9646 111.895 16.1828C112.042 16.4748 112.089 16.5995 112.184 16.9133L111.984 17.026L112.046 17.2853L112.197 17.9011C112.453 18.056 112.57 18.0606 112.868 18.1081C112.915 18.8157 112.916 19.363 112.906 20.0691L112.111 21.0047C112.012 21.5269 112.088 21.6182 111.774 21.9247L110.94 22.0093C110.47 22.06 109.618 22.0556 109.119 22.0689C108.203 22.0276 108.095 22.1796 107.733 21.3328C107.641 21.2649 107.552 21.1949 107.464 21.1231C107 20.7422 107.044 20.6493 106.98 20.0098C106.936 19.475 106.961 18.7876 106.964 18.2401C106.977 17.8934 107.041 17.4084 107.077 17.0517C107.63 16.3095 107.695 15.9606 108.674 15.8987Z" fill="#F13429"/>
<path d="M112.046 17.2852L112.197 17.9009C112.453 18.0559 112.57 18.0605 112.868 18.108C112.915 18.8156 112.916 19.3629 112.906 20.0689L112.111 21.0046L111.975 20.9759C112.09 20.5855 112.017 17.9095 112.046 17.2852Z" fill="#DB2649"/>
<path d="M107.077 17.0517C107.63 16.3095 107.695 15.9607 108.674 15.8987C107.265 16.754 108.215 17.3554 107.569 17.9729L106.964 18.2401C106.977 17.8934 107.041 17.4084 107.077 17.0517Z" fill="#DE3031"/>
<path d="M107.91 21.01C108.336 21.0028 108.439 20.9328 108.773 21.1281C108.838 21.387 108.945 21.8945 109.119 22.069C108.204 22.0276 108.096 22.1797 107.733 21.3328L107.91 21.01Z" fill="#DE3031"/>
<path d="M110.946 15.8025C111.319 15.9111 111.566 15.9646 111.895 16.1828C112.043 16.4748 112.089 16.5995 112.184 16.9134L111.984 17.026C111.628 16.9937 111.448 16.98 111.096 16.8833C110.867 16.5073 110.948 16.2994 110.946 15.8025Z" fill="#CE2C37"/>
<path d="M110.94 22.0093C110.931 21.6499 110.934 21.5425 110.997 21.1843C111.343 20.9292 111.479 21.006 111.975 20.9761L112.111 21.0047C112.012 21.527 112.088 21.6182 111.774 21.9247L110.94 22.0093Z" fill="#AD204A"/>
<path d="M106.98 20.0098C107.425 20.0496 107.507 19.9791 107.791 20.2385L107.91 21.0099L107.733 21.3328C107.641 21.2649 107.552 21.1949 107.464 21.1231C107 20.7422 107.044 20.6493 106.98 20.0098Z" fill="#B42926"/>
<path d="M126.949 15.9791C129.473 15.1935 127.824 15.6829 129.995 15.9715C131.159 17.2366 130.754 17.19 131.263 18.4588L131.147 19.2108C131.102 19.5209 130.983 20.2133 130.984 20.4951C130.933 20.9773 130.311 21.2829 129.879 22.0165C129.305 22.0392 127.455 22.1542 127.037 21.9598L126.263 21.8835C125.977 21.6185 126.026 21.4547 125.929 21.0046L125.841 20.8055C125.837 19.8398 125.792 17.8866 125.942 17.0151L125.936 16.9154L126.044 16.2305C126.312 15.9358 126.443 16.0229 126.949 15.9791Z" fill="#F13429"/>
<path d="M129.995 15.9714C131.159 17.2365 130.754 17.19 131.263 18.4588L131.147 19.2107C131.102 19.5208 130.983 20.2133 130.984 20.4951C130.556 20.7139 130.309 20.8595 129.838 20.9562C130.257 19.5221 129.783 17.4521 129.995 15.9714Z" fill="#DE3031"/>
<path d="M129.838 20.9562C130.31 20.8595 130.556 20.7139 130.984 20.4951C130.933 20.9773 130.311 21.2829 129.879 22.0165C129.305 22.0392 127.456 22.1542 127.037 21.9598C127.557 21.8481 128.528 22.1647 128.991 21.7775L129.031 21.2063C129.312 20.9317 129.381 21.0046 129.838 20.9562Z" fill="#CE2C37"/>
<path d="M125.936 16.9156L126.044 16.2306C126.313 15.936 126.443 16.023 126.949 15.9792C126.944 16.4408 127.026 16.5659 126.796 16.8799C126.512 16.9337 126.228 16.9788 125.942 17.0153L125.936 16.9156Z" fill="#B42926"/>
<path d="M125.929 21.0046C126.419 21.0216 126.532 20.9425 126.879 21.1855C126.961 21.4855 126.997 21.6518 127.037 21.9599L126.263 21.8835C125.977 21.6186 126.026 21.4547 125.929 21.0046Z" fill="#B42926"/>
<path d="M118.901 16.0187C120.552 15.7324 119.947 15.1924 121.917 15.8471C122.707 16.0547 122.741 16.0133 123.011 16.7738L122.908 17.0614L122.918 17.7388C122.93 18.4135 122.872 20.3969 122.928 20.8922L123.006 20.9001C122.767 21.7957 122.906 21.9649 121.965 22.0142L120.174 22.0682C119.861 22.0603 119.463 21.9958 119.148 21.9544C118.607 21.2897 118.15 20.8374 117.989 19.9908C117.941 18.8924 117.991 18.17 118.077 17.0673C118.343 16.7687 118.651 16.3438 118.901 16.0187Z" fill="#F13429"/>
<path d="M117.989 19.9907C118.486 20.0616 118.495 19.978 118.781 20.2797C118.866 20.7179 118.789 20.7185 119.091 20.9492C119.561 21.0178 119.626 20.9413 119.884 21.2432C119.952 21.7623 119.866 21.7379 120.174 22.0681C119.861 22.0602 119.463 21.9957 119.148 21.9544C118.607 21.2896 118.15 20.8373 117.989 19.9907Z" fill="#DE3031"/>
<path d="M121.917 15.8469C122.707 16.0545 122.741 16.0131 123.011 16.7736L122.908 17.0612C121.909 16.5132 122.276 17.5985 121.917 15.8469Z" fill="#CE2C37"/>
<path d="M122.928 20.8921L123.006 20.9C122.767 21.7956 122.906 21.9648 121.965 22.0141C121.938 20.9971 121.962 21.0893 122.928 20.8921Z" fill="#AD204A"/>
<path d="M27.0934 47.939L27.9426 47.9731L27.5905 48.1034C27.6572 48.3223 27.7185 48.5428 27.7745 48.7647C27.7654 48.7732 27.757 48.782 27.7474 48.7899C27.0649 49.3569 14.1692 48.7266 12.4615 48.7168C9.90448 48.702 7.88195 49.0021 5.2094 48.7954L4.9729 47.9479L27.0934 47.939Z" fill="#D06926" fill-opacity="0.0117647"/>
<path d="M154.863 38.6093C154.98 33.4055 154.783 28.1309 154.865 22.9207C154.884 21.7486 154.791 20.3828 154.963 19.2355C155.266 18.9875 155.462 19.0409 155.91 18.9836C155.783 21.0253 155.86 23.6302 155.862 25.7395L155.886 37.2131C155.856 37.8036 155.807 38.4652 155.824 39.0504C155.38 39.0465 155.319 38.8282 155.053 38.5111L154.863 38.6093Z" fill="#0B2BD1" fill-opacity="0.709804"/>
<path d="M12.0966 19.0017C12.4062 19.0269 12.7287 18.9907 12.9177 19.1611C12.9581 20.1612 12.9574 21.1666 12.9498 22.1676C12.9007 28.7568 12.9964 35.3582 12.913 41.946L12.2176 41.8448C11.9688 41.501 12.0867 21.199 12.0966 19.0017Z" fill="#BC2C44" fill-opacity="0.796078"/>
<path d="M128.033 28.8999C128.492 28.9238 128.623 28.8456 128.907 29.0934C128.962 33.0825 128.967 37.0723 128.919 41.0617C128.913 42.9601 129.02 46.0406 128.891 47.8532C128.548 48.0047 128.32 47.9664 127.949 47.9489L127.948 35.5455C127.947 33.7757 127.864 30.5508 128.033 28.8999Z" fill="#A6204E" fill-opacity="0.882353"/>
<path d="M42.0805 18.9712C42.5048 19.0228 42.6773 18.9621 42.9234 19.2101C42.9867 20.7574 42.9674 22.3904 42.9457 23.9438C42.8663 29.6349 43.0391 35.3742 42.9269 41.0606L42.3258 41.5515C41.8017 40.807 42.403 30.1502 42.0907 28.1225C42.0228 25.1245 42.1065 21.9946 42.0805 18.9712Z" fill="#AD204A" fill-opacity="0.811765"/>
<path d="M28.031 30.7174L28.2118 30.6328C29.148 32.0893 28.5466 42.8665 29.016 43.6033C29.0285 44.6682 29.2291 46.9611 28.8456 47.7294C28.5042 48.0032 28.516 47.9211 28.0061 47.9512C28.0919 46.3378 28.0184 44.0524 28.0169 42.3985C28.0008 38.5048 28.0055 34.611 28.031 30.7174Z" fill="#BF4040" fill-opacity="0.52549"/>
<path d="M101.908 28.9303C102.374 28.925 102.861 28.9027 103.328 28.8887C103.226 28.937 103.019 29.0054 103.015 29.0827C102.817 32.3828 102.875 37.4455 102.92 40.6405C102.842 41.1689 102.943 41.5528 102.678 41.8523C102.379 41.8983 102.204 41.9223 101.897 41.9289C102.024 37.7605 101.929 33.1327 101.908 28.9303Z" fill="#AC2D26" fill-opacity="0.913725"/>
<path d="M156.86 47.9312L157.661 47.9387C157.572 47.9554 156.874 48.0794 156.854 48.0975L156.802 48.9218C154.16 48.9891 151.516 49.0027 148.873 48.9628C148.234 48.851 146.803 48.8518 146.096 48.8346C146.301 48.7817 146.982 48.6177 147.134 48.5445C145.171 48.2746 143.755 48.2111 141.801 48.1747L141.044 48.1384L140.919 48.071C141.955 47.9657 144.56 48.0235 145.75 48.0122L156.86 47.9312Z" fill="#1845AE" fill-opacity="0.411765"/>
<path d="M42.0907 28.1226C42.4031 30.1503 41.8017 40.807 42.3258 41.5515L42.927 41.0606C42.871 42.6047 43.0148 46.6605 42.8584 47.8335C42.6025 47.9748 42.3471 47.9541 42.0558 47.9595L42.0593 35.2724C42.0582 33.0249 41.9904 30.3413 42.0907 28.1226Z" fill="#AD204A" fill-opacity="0.945098"/>
<path d="M47.9269 47.8977C47.6366 47.8875 47.3463 47.8814 47.0558 47.8795C46.8687 47.5722 46.8862 42.5186 47.1216 42.0951L47.9118 42.0066C47.9337 43.0768 47.8253 46.8397 47.9781 47.5941L47.9269 47.8977Z" fill="#B42926" fill-opacity="0.670588"/>
<path d="M27.9803 28.9009L28.1929 29.1741C28.5496 28.9786 28.4781 28.9393 28.7933 29.0226C29.2036 29.5654 29.0272 41.996 29.016 43.6032C28.5466 42.8665 29.1481 32.0892 28.2118 30.6328L28.031 30.7174L27.9803 28.9009Z" fill="#CE2C37" fill-opacity="0.588235"/>
<path d="M35.046 47.9647L35.2865 47.9636L35.312 48.1646C37.306 48.2684 40.0943 47.9531 41.9634 48.2665C41.7377 49.5725 36.3845 48.8311 35.2403 48.7043C35.054 48.529 35.0838 48.2701 35.046 47.9647Z" fill="#DE3031" fill-opacity="0.0196078"/>
<path d="M140.865 23.2399C142.627 23.2014 146.949 23.0418 148.645 23.2567L148.816 23.8368C146.119 23.5125 143.576 24.0438 141.092 23.7476L140.865 23.2399Z" fill="#214FD8" fill-opacity="0.0117647"/>
<path d="M138.95 43.0322L139.71 42.8801L139.75 42.9973C139.728 44.4418 139.676 46.2239 139.762 47.6518L139.57 47.0554C139.505 47.3704 139.463 47.4803 139.335 47.7763L139.173 47.8073L139.069 47.7068C138.808 47.059 138.938 43.8809 138.95 43.0322Z" fill="#1531CD" fill-opacity="0.298039"/>
<path d="M122.918 17.7388C123.133 18.0185 123.482 18.0274 123.841 18.0915C123.937 18.9868 124.18 19.862 123.664 20.5681L123.006 20.9001L122.928 20.8922C122.872 20.3969 122.93 18.4135 122.918 17.7388Z" fill="#DB2649" fill-opacity="0.984314"/>
<path d="M125.936 16.9155L125.942 17.0152C125.792 17.8867 125.837 19.8399 125.841 20.8055C125.664 20.5398 125.489 20.2726 125.317 20.004C124.65 18.9618 124.886 17.5553 125.936 16.9155Z" fill="#B42926" fill-opacity="0.972549"/>
<path d="M22.843 16.9378C22.8844 16.7048 22.8882 16.324 23.1084 16.2101C25.1287 15.1662 25.07 16.6018 25.4925 16.9029C24.9418 17.0121 23.4369 16.9524 22.843 16.9378Z" fill="#A23740" fill-opacity="0.988235"/>
<path d="M141.044 48.1387L141.801 48.175C142.655 48.4054 143.817 48.4921 144.785 48.6947L144.166 48.6687C144.684 48.8168 145.569 48.9372 146.096 48.8349C146.803 48.8521 148.234 48.8512 148.873 48.963C147.399 49.0704 145.297 48.9542 143.735 48.9653C143.183 48.9076 142.642 48.8878 142.09 48.8628C141.886 48.8536 141.327 48.3175 141.044 48.1387Z" fill="#2742BC" fill-opacity="0.2"/>
<path d="M149.985 31.4419L150.102 31.6302C150.269 32.1475 150.377 32.0468 150.904 31.9687C150.862 32.8184 150.891 33.7092 150.907 34.5633C150.593 33.7569 150.659 34.2998 150.109 33.7818C149.925 33.1928 149.991 32.117 149.985 31.4419Z" fill="#214FD8" fill-opacity="0.984314"/>
<path d="M139.767 48.0186L140.919 48.0711L141.044 48.1386C141.327 48.3174 141.886 48.8534 142.09 48.8627C142.642 48.8877 143.183 48.9075 143.735 48.9652C142.88 49.1003 140.988 48.9722 140.085 48.9231C139.83 48.705 139.822 48.3578 139.767 48.0186Z" fill="#2742BC" fill-opacity="0.0392157"/>
<path d="M92.0042 34.9653C93.1042 35.876 92.9938 35.4179 92.9741 37.0484L91.9926 37.0271L92.0042 34.9653Z" fill="#AD204A" fill-opacity="0.976471"/>
<path d="M141.801 48.1748C143.755 48.2111 145.171 48.2746 147.134 48.5446C146.982 48.6178 146.301 48.7818 146.096 48.8347C145.569 48.937 144.684 48.8166 144.166 48.6685L144.785 48.6945C143.817 48.4919 142.655 48.4052 141.801 48.1748Z" fill="#2742BC" fill-opacity="0.258824"/>
<path d="M79.0364 34.0062C79.6718 34.0068 82.3027 33.9728 82.7616 34.0786L82.8348 34.1995L82.8557 35.0064C81.9264 34.486 81.4176 34.4297 80.3885 34.2629C80.0319 34.0027 79.4313 34.0818 78.9911 34.1027L79.0364 34.0062Z" fill="#B42926" fill-opacity="0.988235"/>
<path d="M155.823 39.0505C155.807 38.4652 155.856 37.8036 155.886 37.2131C155.956 38.4431 155.85 39.8535 155.926 40.9491L154.77 41.1025L154.888 40.6885C154.967 40.4221 155.025 39.7932 155.053 39.5004L155.189 39.9088L155.391 39.9894C155.862 39.7924 155.807 39.4656 155.823 39.0505Z" fill="#1531CD" fill-opacity="0.988235"/>
<path d="M141.921 29.9236C142.435 30.0167 142.455 29.9323 142.752 30.254C142.925 30.7946 142.747 31.237 142.828 31.8493L142.763 32.0387C141.966 31.1281 141.93 31.121 141.921 29.9236Z" fill="#1531CD" fill-opacity="0.988235"/>
<path d="M148.962 27.8325L149.004 27.9251C149.008 28.314 148.96 28.6899 149.214 28.9668C149.611 29.0016 149.77 28.7835 149.935 28.4258L149.952 30.0705C149.629 29.9274 149.353 30.0281 149.007 30.1042C148.965 29.3398 148.909 28.5969 148.962 27.8325Z" fill="#1E5AE0" fill-opacity="0.980392"/>
<path d="M142.897 33.7559C143.608 34.752 143.917 33.061 143.845 35.8791C143.389 34.4872 142.881 35.6919 142.897 33.7559Z" fill="#1531CD" fill-opacity="0.984314"/>
<path d="M131.263 18.4589C131.286 18.628 131.321 18.9593 131.376 19.1036C131.401 18.7502 131.387 18.4036 131.581 18.1133L131.778 18.1153C132.102 18.4614 131.947 19.534 131.622 19.8786C131.268 19.7765 131.262 19.563 131.147 19.2108L131.263 18.4589Z" fill="#CE2C37" fill-opacity="0.0313725"/>
<path d="M154.863 38.6094L155.053 38.5112C155.319 38.8283 155.38 39.0466 155.823 39.0505C155.807 39.4657 155.862 39.7925 155.391 39.9894L155.189 39.9089L155.053 39.5005C155.025 39.7933 154.967 40.4222 154.888 40.6885L154.863 38.6094Z" fill="#1531CD" fill-opacity="0.92549"/>
<path d="M91.9927 37.0271L92.9742 37.0483L93.0102 38.0137C92.6826 38.0096 92.4817 38.0035 92.1518 37.9612C91.9206 37.6317 92.0008 37.499 91.9927 37.0271Z" fill="#DB2649" fill-opacity="0.988235"/>
<path d="M150.936 35.9552C151.385 35.9274 151.486 35.8402 151.802 36.0446C151.887 36.3744 151.878 36.4593 151.857 36.8019C151.583 36.91 151.227 36.9743 150.934 37.0377L150.936 35.9552Z" fill="#2742BC" fill-opacity="0.886275"/>
<path d="M20.9918 20.9722L21.8528 21.0269L21.9706 21.6358L21.9664 22.0149L21.8563 22.183L21.7838 22.0442L21.1995 21.8703C20.9363 21.5039 21.0199 21.5004 20.9918 20.9722Z" fill="#D06926" fill-opacity="0.988235"/>
<path d="M123.011 16.7737C123.61 17.3052 123.783 17.0504 123.822 17.6724C123.829 17.8119 123.836 17.9516 123.841 18.0914C123.482 18.0273 123.133 18.0184 122.918 17.7387L122.908 17.0613L123.011 16.7737Z" fill="#AD204A" fill-opacity="0.988235"/>
<path d="M138.95 43.032C138.917 42.661 138.912 42.5588 138.96 42.1797C139.265 41.9202 139.324 41.9925 139.78 41.957L139.71 42.88L138.95 43.032Z" fill="#1531CD" fill-opacity="0.0901961"/>
<path d="M149.004 27.925C149.464 27.9581 149.594 27.8829 149.882 28.1356L149.935 28.4257C149.771 28.7834 149.611 29.0016 149.214 28.9668C148.96 28.6898 149.009 28.3139 149.004 27.925Z" fill="#214FD8" fill-opacity="0.92549"/>
<path d="M144.958 41.0542L145.934 41.0576L145.908 41.8739L144.996 41.9058L144.958 41.0542Z" fill="#1531CD" fill-opacity="0.984314"/>
<path d="M112.184 16.9133C112.605 17.0023 112.587 16.9267 112.817 17.2223L112.868 18.1081C112.57 18.0606 112.453 18.056 112.197 17.9011L112.046 17.2853L111.984 17.026L112.184 16.9133Z" fill="#AD204A" fill-opacity="0.980392"/>
<path d="M156.854 48.0977C157.39 48.1423 157.442 48.0552 157.785 48.3401L157.821 48.5647C157.442 48.9905 157.365 48.945 156.802 48.922L156.854 48.0977Z" fill="#214FD8" fill-opacity="0.0117647"/>
<path d="M78.991 34.1026C79.4313 34.0817 80.0318 34.0027 80.3884 34.2629L80.0725 34.2789C79.6183 34.4381 79.5521 34.3758 79.3326 34.8321C79.3128 34.8737 79.2931 34.9159 79.2768 34.9588L79.1862 35.0217L78.9016 35.0552L78.991 34.1026Z" fill="#AD204A" fill-opacity="0.984314"/>
<path d="M86.1267 41.0528C86.6424 41.0387 86.4798 40.98 86.9166 41.2334C86.8051 41.6392 86.8701 41.6627 86.5762 41.8874L86.0326 41.9362L86.1267 41.0528Z" fill="#B42926" fill-opacity="0.984314"/>
<path d="M150.102 31.6303C150.284 31.282 150.261 31.1783 150.569 31.0308C150.844 31.2749 150.875 31.5184 150.901 31.9121L150.904 31.9687C150.377 32.0468 150.269 32.1475 150.102 31.6303Z" fill="#214FD8" fill-opacity="0.0235294"/>
<path d="M27.0824 18.6821C27.3734 18.3186 27.2535 18.3743 27.6632 18.2131C28.0246 18.457 27.9543 18.7027 27.9068 19.1138C27.507 19.0232 27.3407 19.0108 27.0824 18.6821Z" fill="#F13429" fill-opacity="0.0117647"/>
<path d="M147.997 24.0061C148.424 24.0213 148.511 23.9502 148.801 24.1815C148.823 24.4608 148.834 24.741 148.835 25.0211L148.638 24.4768C148.406 24.692 148.352 24.7249 148.037 24.7472L148.01 24.7488L147.997 24.0061Z" fill="#214FD8" fill-opacity="0.901961"/>
<path d="M79.1862 35.0217L79.2768 34.9588C79.293 34.9158 79.3128 34.8736 79.3325 34.832C79.5521 34.3757 79.6183 34.438 80.0724 34.2788C79.9725 34.7375 80.0446 34.8034 79.7275 35.0254L79.1862 35.0217Z" fill="#A23740" fill-opacity="0.94902"/>
<path d="M140.814 24.349C140.634 24.441 140.356 24.509 140.155 24.5661L139.934 24.4414L139.959 24.229C140.329 23.9225 140.304 24.0223 140.898 24.0083L140.814 24.349Z" fill="#1531CD" fill-opacity="0.258824"/>
</svg>
